<svg xmlns="http://www.w3.org/2000/svg" width="128" height="128" viewBox="0 0 128 128">
  <path fill="#98c379" d="M92.018 44.916H51.57l4.618-12.672H42.706L26.572 76.596h13.482l6.925-19.008h40.446l-2.31 6.336h-33.69L44.5 82.932a9.599 9.599 0 0 0-.566 3.217c0 5.18 4.273 9.43 9.43 9.43h20.21l4.618-12.673h-20.21l2.332-6.336H80.5l-2.308 6.337h13.482l9.234-25.344a9.648 9.648 0 0 0 .565-3.217c-.025-5.157-4.298-9.43-9.455-9.43zM33.15 32H21.57L0 64l21.57 32h11.58L11.57 64m83.28-32h11.58L128 64l-21.57 32H94.85l21.58-32M0 22h6v15H0zm10 0h6v15h-6zm102 0h6v15h-6zm10 0h6v15h-6z"/>
</svg>
